<?xml version="1.0" standalone="no"?>
<svg viewBox="0 0 200 200" xmlns="http://www.w3.org/2000/svg">
  <path fill="#A28DD6" d="M24.2,-30.8C35,-25.4,49.8,-23.2,60.7,-14C71.5,-4.8,78.3,11.4,74.5,24.6C70.8,37.8,56.5,47.9,42.3,53.8C28.1,59.7,14.1,61.4,-0.7,62.3C-15.4,63.3,-30.8,63.4,-45,57.5C-59.3,51.6,-72.5,39.7,-72.9,26.5C-73.2,13.3,-60.7,-1.2,-52.9,-14.6C-45,-28.1,-41.7,-40.5,-33.7,-46.8C-25.6,-53.1,-12.8,-53.3,-3.1,-49.1C6.7,-44.9,13.4,-36.3,24.2,-30.8Z" transform="translate(100 100)" />
</svg>
