<svg id="visual" viewBox="0 0 900 600" width="900" height="600" xmlns="http://www.w3.org/2000/svg" xmlns:xlink="http://www.w3.org/1999/xlink" version="1.1"><rect x="0" y="0" width="900" height="600" fill="#ffffff"></rect><path d="M690 600L696.2 592.8C702.3 585.7 714.7 571.3 719.5 557C724.3 542.7 721.7 528.3 729.3 514C737 499.7 755 485.3 768.8 471.2C782.7 457 792.3 443 793.2 428.8C794 414.7 786 400.3 770.2 386C754.3 371.7 730.7 357.3 726.2 343C721.7 328.7 736.3 314.3 728 300C719.7 285.7 688.3 271.3 697 257C705.7 242.7 754.3 228.3 760.5 214C766.7 199.7 730.3 185.3 709 171.2C687.7 157 681.3 143 699.8 128.8C718.3 114.7 761.7 100.3 764.5 86C767.3 71.7 729.7 57.3 706.7 43C683.7 28.7 675.3 14.3 671.2 7.2L667 0L900 0L900 7.2C900 14.3 900 28.7 900 43C900 57.3 900 71.7 900 86C900 100.3 900 114.7 900 128.8C900 143 900 157 900 171.2C900 185.3 900 199.7 900 214C900 228.3 900 242.7 900 257C900 271.3 900 285.7 900 300C900 314.3 900 328.7 900 343C900 357.3 900 371.7 900 386C900 400.3 900 414.7 900 428.8C900 443 900 457 900 471.2C900 485.3 900 499.7 900 514C900 528.3 900 542.7 900 557C900 571.3 900 585.7 900 592.8L900 600Z" fill="#584ca6"></path><path d="M783 600L787.3 592.8C791.7 585.7 800.3 571.3 792 557C783.7 542.7 758.3 528.3 758 514C757.7 499.7 782.3 485.3 793.2 471.2C804 457 801 443 790.2 428.8C779.3 414.7 760.7 400.3 756.2 386C751.7 371.7 761.3 357.3 754.7 343C748 328.7 725 314.3 727 300C729 285.7 756 271.3 762.7 257C769.3 242.7 755.7 228.3 757.3 214C759 199.7 776 185.3 768.2 171.2C760.3 157 727.7 143 712.3 128.8C697 114.7 699 100.3 699.5 86C700 71.7 699 57.3 704.7 43C710.3 28.7 722.7 14.3 728.8 7.2L735 0L900 0L900 7.2C900 14.3 900 28.7 900 43C900 57.3 900 71.7 900 86C900 100.3 900 114.7 900 128.8C900 143 900 157 900 171.2C900 185.3 900 199.7 900 214C900 228.3 900 242.7 900 257C900 271.3 900 285.7 900 300C900 314.3 900 328.7 900 343C900 357.3 900 371.7 900 386C900 400.3 900 414.7 900 428.8C900 443 900 457 900 471.2C900 485.3 900 499.7 900 514C900 528.3 900 542.7 900 557C900 571.3 900 585.7 900 592.8L900 600Z" fill="#5e51b9"></path><path d="M773 600L768.3 592.8C763.7 585.7 754.3 571.3 757.3 557C760.3 542.7 775.7 528.3 780.7 514C785.7 499.7 780.3 485.3 776.3 471.2C772.3 457 769.7 443 780.8 428.8C792 414.7 817 400.3 823.8 386C830.7 371.7 819.3 357.3 809 343C798.7 328.7 789.3 314.3 789 300C788.7 285.7 797.3 271.3 792.8 257C788.3 242.7 770.7 228.3 771.2 214C771.7 199.7 790.3 185.3 799 171.2C807.7 157 806.3 143 798.5 128.8C790.7 114.7 776.3 100.3 772.7 86C769 71.7 776 57.3 774 43C772 28.7 761 14.3 755.5 7.2L750 0L900 0L900 7.2C900 14.3 900 28.7 900 43C900 57.3 900 71.7 900 86C900 100.3 900 114.7 900 128.8C900 143 900 157 900 171.2C900 185.3 900 199.7 900 214C900 228.3 900 242.7 900 257C900 271.3 900 285.7 900 300C900 314.3 900 328.7 900 343C900 357.3 900 371.7 900 386C900 400.3 900 414.7 900 428.8C900 443 900 457 900 471.2C900 485.3 900 499.7 900 514C900 528.3 900 542.7 900 557C900 571.3 900 585.7 900 592.8L900 600Z" fill="#6455cc"></path><path d="M835 600L831.2 592.8C827.3 585.7 819.7 571.3 810.3 557C801 542.7 790 528.3 787.7 514C785.3 499.7 791.7 485.3 801.5 471.2C811.3 457 824.7 443 828.7 428.8C832.7 414.7 827.3 400.3 828.7 386C830 371.7 838 357.3 832.2 343C826.3 328.7 806.7 314.3 803.3 300C800 285.7 813 271.3 816.2 257C819.3 242.7 812.7 228.3 815 214C817.3 199.7 828.7 185.3 834.7 171.2C840.7 157 841.3 143 839.3 128.8C837.3 114.7 832.7 100.3 828.8 86C825 71.7 822 57.3 821.2 43C820.3 28.7 821.7 14.3 822.3 7.2L823 0L900 0L900 7.2C900 14.3 900 28.7 900 43C900 57.3 900 71.7 900 86C900 100.3 900 114.7 900 128.8C900 143 900 157 900 171.2C900 185.3 900 199.7 900 214C900 228.3 900 242.7 900 257C900 271.3 900 285.7 900 300C900 314.3 900 328.7 900 343C900 357.3 900 371.7 900 386C900 400.3 900 414.7 900 428.8C900 443 900 457 900 471.2C900 485.3 900 499.7 900 514C900 528.3 900 542.7 900 557C900 571.3 900 585.7 900 592.8L900 600Z" fill="#6a59df"></path><path d="M857 600L858.2 592.8C859.3 585.7 861.7 571.3 865.7 557C869.7 542.7 875.3 528.3 873.2 514C871 499.7 861 485.3 860.3 471.2C859.7 457 868.3 443 863.2 428.8C858 414.7 839 400.3 830.8 386C822.7 371.7 825.3 357.3 828.3 343C831.3 328.7 834.7 314.3 842.3 300C850 285.7 862 271.3 860.2 257C858.3 242.7 842.7 228.3 836 214C829.3 199.7 831.7 185.3 838.8 171.2C846 157 858 143 859.3 128.8C860.7 114.7 851.3 100.3 848.8 86C846.3 71.7 850.7 57.3 857.8 43C865 28.7 875 14.3 880 7.2L885 0L900 0L900 7.2C900 14.3 900 28.7 900 43C900 57.3 900 71.7 900 86C900 100.3 900 114.7 900 128.8C900 143 900 157 900 171.2C900 185.3 900 199.7 900 214C900 228.3 900 242.7 900 257C900 271.3 900 285.7 900 300C900 314.3 900 328.7 900 343C900 357.3 900 371.7 900 386C900 400.3 900 414.7 900 428.8C900 443 900 457 900 471.2C900 485.3 900 499.7 900 514C900 528.3 900 542.7 900 557C900 571.3 900 585.7 900 592.8L900 600Z" fill="#715df2"></path></svg>