<svg id="visual" viewBox="0 0 900 600" width="900" height="600" xmlns="http://www.w3.org/2000/svg" xmlns:xlink="http://www.w3.org/1999/xlink" version="1.1"><rect x="0" y="0" width="900" height="600" fill="#002233"></rect><path d="M0 185L16.7 168C33.3 151 66.7 117 100 97.7C133.3 78.3 166.7 73.7 200 91.3C233.3 109 266.7 149 300 170.7C333.3 192.3 366.7 195.7 400 190C433.3 184.3 466.7 169.7 500 168.8C533.3 168 566.7 181 600 182.5C633.3 184 666.7 174 700 149.5C733.3 125 766.7 86 800 66.3C833.3 46.7 866.7 46.3 883.3 46.2L900 46L900 0L883.3 0C866.7 0 833.3 0 800 0C766.7 0 733.3 0 700 0C666.7 0 633.3 0 600 0C566.7 0 533.3 0 500 0C466.7 0 433.3 0 400 0C366.7 0 333.3 0 300 0C266.7 0 233.3 0 200 0C166.7 0 133.3 0 100 0C66.7 0 33.3 0 16.7 0L0 0Z" fill="#8559f7" stroke-linecap="round" stroke-linejoin="miter"></path></svg>